<svg width="961" height="758" viewBox="0 0 961 758" fill="none" xmlns="http://www.w3.org/2000/svg">
<rect width="961" height="584" fill="#ADE8F4" fill-opacity="0.54"/>
<path d="M441.627 605.694C458.162 574.511 502.838 574.511 519.373 605.694L535.965 636.983C551.504 666.288 530.262 701.596 497.092 701.596H463.908C430.738 701.596 409.496 666.288 425.035 636.983L441.627 605.694Z" fill="#C4C4C4"/>
<mask id="path-3-inside-1" fill="white">
<path d="M0 10C0 4.47715 4.47715 0 10 0H951C956.523 0 961 4.47715 961 10V584.325H0V10Z"/>
</mask>
<path d="M0 10C0 4.47715 4.47715 0 10 0H951C956.523 0 961 4.47715 961 10V584.325H0V10Z" stroke="black" stroke-width="42" mask="url(#path-3-inside-1)"/>
<path d="M0 584.325H961V601.657C961 612.703 952.046 621.657 941 621.657H20C8.95433 621.657 0 612.703 0 601.657V584.325Z" fill="#C4C4C4"/>
<path d="M337.852 705.298C337.852 675.24 362.218 650.874 392.276 650.874H568.724C598.782 650.874 623.148 675.24 623.148 705.298V705.298C623.148 705.719 622.807 706.06 622.386 706.06H338.613C338.193 706.06 337.852 705.719 337.852 705.298V705.298Z" fill="#C4C4C4"/>
</svg>
