<svg width="176" height="215" viewBox="0 0 176 215" fill="none" xmlns="http://www.w3.org/2000/svg">
<g filter="url(#filter0_d)">
<path d="M81.5469 133.719H54.8281V206H5.46875V1.25H86.0469C110.328 1.25 129.312 6.64062 143 17.4219C156.688 28.2031 163.531 43.4375 163.531 63.125C163.531 77.375 160.625 89.1875 154.812 98.5625C149.094 107.938 140.094 115.531 127.812 121.344L170.562 203.891V206H117.688L81.5469 133.719ZM54.8281 95.6094H86.0469C95.4219 95.6094 102.453 93.1719 107.141 88.2969C111.922 83.3281 114.312 76.4375 114.312 67.625C114.312 58.8125 111.922 51.9219 107.141 46.9531C102.359 41.8906 95.3281 39.3594 86.0469 39.3594H54.8281V95.6094Z" fill="#03045E"/>
<path d="M81.5469 133.719L82.4413 133.272L82.1649 132.719H81.5469V133.719ZM54.8281 133.719V132.719H53.8281V133.719H54.8281ZM54.8281 206V207H55.8281V206H54.8281ZM5.46875 206H4.46875V207H5.46875V206ZM5.46875 1.25V0.25H4.46875V1.25H5.46875ZM154.812 98.5625L153.963 98.0355L153.959 98.0417L154.812 98.5625ZM127.812 121.344L127.385 120.44L126.448 120.883L126.925 121.804L127.812 121.344ZM170.562 203.891H171.562V203.647L171.45 203.431L170.562 203.891ZM170.562 206V207H171.562V206H170.562ZM117.688 206L116.793 206.447L117.069 207H117.688V206ZM54.8281 95.6094H53.8281V96.6094H54.8281V95.6094ZM107.141 88.2969L106.42 87.6035L106.42 87.6038L107.141 88.2969ZM107.141 46.9531L106.414 47.6398L106.42 47.6465L107.141 46.9531ZM54.8281 39.3594V38.3594H53.8281V39.3594H54.8281ZM81.5469 132.719H54.8281V134.719H81.5469V132.719ZM53.8281 133.719V206H55.8281V133.719H53.8281ZM54.8281 205H5.46875V207H54.8281V205ZM6.46875 206V1.25H4.46875V206H6.46875ZM5.46875 2.25H86.0469V0.25H5.46875V2.25ZM86.0469 2.25C110.191 2.25 128.928 7.61069 142.381 18.2074L143.619 16.6363C129.697 5.67056 110.466 0.25 86.0469 0.25V2.25ZM142.381 18.2074C155.795 28.7728 162.531 43.6987 162.531 63.125H164.531C164.531 43.1763 157.58 27.6335 143.619 16.6363L142.381 18.2074ZM162.531 63.125C162.531 77.2423 159.652 88.8588 153.963 98.0356L155.662 99.0894C161.598 89.5162 164.531 77.5077 164.531 63.125H162.531ZM153.959 98.0417C148.363 107.215 139.532 114.691 127.385 120.44L128.24 122.248C140.656 116.372 149.824 108.66 155.666 99.0833L153.959 98.0417ZM126.925 121.804L169.675 204.351L171.45 203.431L128.7 120.884L126.925 121.804ZM169.562 203.891V206H171.562V203.891H169.562ZM170.562 205H117.688V207H170.562V205ZM118.582 205.553L82.4413 133.272L80.6524 134.166L116.793 206.447L118.582 205.553ZM54.8281 96.6094H86.0469V94.6094H54.8281V96.6094ZM86.0469 96.6094C95.5862 96.6094 102.922 94.1271 107.861 88.99L106.42 87.6038C101.984 92.2167 95.2575 94.6094 86.0469 94.6094V96.6094ZM107.861 88.9903C112.868 83.7874 115.312 76.6211 115.312 67.625H113.312C113.312 76.2539 110.976 82.8688 106.42 87.6035L107.861 88.9903ZM115.312 67.625C115.312 58.6289 112.868 51.4626 107.861 46.2597L106.42 47.6465C110.976 52.3812 113.312 58.9961 113.312 67.625H115.312ZM107.868 46.2665C102.841 40.9438 95.5078 38.3594 86.0469 38.3594V40.3594C95.1485 40.3594 101.878 42.8375 106.414 47.6397L107.868 46.2665ZM86.0469 38.3594H54.8281V40.3594H86.0469V38.3594ZM53.8281 39.3594V95.6094H55.8281V39.3594H53.8281Z" fill="#03045E"/>
</g>
<defs>
<filter id="filter0_d" x="0.46875" y="0.25" width="175.094" height="214.75" filterUnits="userSpaceOnUse" color-interpolation-filters="sRGB">
<feFlood flood-opacity="0" result="BackgroundImageFix"/>
<feColorMatrix in="SourceAlpha" type="matrix" values="0 0 0 0 0 0 0 0 0 0 0 0 0 0 0 0 0 0 127 0"/>
<feOffset dy="4"/>
<feGaussianBlur stdDeviation="2"/>
<feColorMatrix type="matrix" values="0 0 0 0 0 0 0 0 0 0 0 0 0 0 0 0 0 0 0.25 0"/>
<feBlend mode="normal" in2="BackgroundImageFix" result="effect1_dropShadow"/>
<feBlend mode="normal" in="SourceGraphic" in2="effect1_dropShadow" result="shape"/>
</filter>
</defs>
</svg>
